<?xml version="1.0" encoding="UTF-8"?>
<svg id="Layer_2" data-name="Layer 2" xmlns="http://www.w3.org/2000/svg" viewBox="0 0 222 192.26">
  <defs>
    <style>
      .cls-1 {
        fill: #7c5cff;
      }
    </style>
  </defs>
  <g id="Layer_1-2" data-name="Layer 1">
    <path class="cls-1" d="M222,96.13L166.5,0H55.5L0,96.13l46.72,80.92v-91.44c0-17.61,6.35-32.89,18.87-45.41,12.52-12.52,27.8-18.87,45.41-18.87s32.89,6.35,45.41,18.87c12.52,12.52,18.87,27.8,18.87,45.41v91.44l46.72-80.92ZM116.21,106.86h26.66c0-.07,0-21.57,0-21.64-.09-8.69-3.16-15.91-9.39-22.06-6.29-6.36-13.63-9.44-22.48-9.44s-16.19,3.07-22.43,9.39c-6.18,6.18-9.21,13.41-9.3,22.11,0,.07,0,21.57,0,21.64h26.66v32.41h-26.66v10.28h53.33v32.41h-53.33v10.28h0s63.61.01,63.61.01h0v-52.98h-26.66v-32.41ZM96.68,81.95c0-7.94,6.44-14.38,14.38-14.38,1.48,0,2.91.22,4.25.64-2.5,1.13-4.25,3.63-4.25,6.55,0,3.97,3.22,7.19,7.19,7.19,2.92,0,5.43-1.75,6.55-4.25.42,1.34.64,2.77.64,4.25,0,7.94-6.44,14.38-14.38,14.38s-14.38-6.44-14.38-14.38Z"/>
  </g>
</svg>