<?xml version="1.0" encoding="UTF-8"?>
<svg id="Layer_2" data-name="Layer 2" xmlns="http://www.w3.org/2000/svg" viewBox="0 0 500.09 146.09">
  <defs>
    <style>
      .cls-1 {
        fill: #fff;
      }

      .cls-2 {
        fill: #7c5cff;
      }
    </style>
  </defs>
  <g id="Layer_1-2" data-name="Layer 1">
    <g>
      <path class="cls-1" d="M171.4,99.9c0,6.36-2.21,11.64-6.76,16.14-4.49,4.49-9.76,6.67-16.14,6.67s-11.65-2.18-16.14-6.67-6.67-9.77-6.67-16.14V0h-23.39v99.9c0,12.66,4.56,23.64,13.56,32.63,8.99,9,19.97,13.56,32.63,13.56s23.64-4.56,32.63-13.56c9-9,13.56-19.97,13.56-32.63V0h-23.29v99.9Z"/>
      <path class="cls-1" d="M225.5,21.4c-14.2,14.2-21.4,31.56-21.4,51.6s7.2,37.5,21.4,51.7c14.2,14.2,31.59,21.4,51.7,21.4h19.29V46.06h-38.68v23.29h15.39v53.21c-12.1-.84-22.34-5.56-31.19-14.36-9.77-9.83-14.51-21.34-14.51-35.21s4.75-25.29,14.51-35.11c9.82-9.82,21.34-14.6,35.2-14.6h19.29V0h-19.29c-20.11,0-37.5,7.2-51.7,21.4Z"/>
      <path class="cls-1" d="M375,99.9c0,6.36-2.21,11.64-6.76,16.14-4.49,4.49-9.76,6.67-16.14,6.67s-11.65-2.18-16.14-6.67-6.67-9.77-6.67-16.14V0h-23.39v99.9c0,12.66,4.56,23.64,13.56,32.63,8.99,9,19.97,13.56,32.63,13.56s23.64-4.56,32.63-13.56c9-9,13.56-19.97,13.56-32.63V0h-23.29v99.9Z"/>
      <path class="cls-1" d="M464.81,116.8c-5.18-2.83-9.71-6.44-13.54-10.78,12.71-2.68,23.64-8.27,32.55-16.66,10.79-10.1,16.27-22.05,16.27-35.53,0-14.94-6.55-27.84-19.48-38.33-12.68-10.29-28.11-15.51-45.87-15.51h-27.03v146.09h23.39v-27.81c5.19,6.61,11.5,12.25,18.85,16.85,11.69,7.27,24.64,10.96,38.5,10.96h11.64v-23.39h-11.64c-8.39,0-16.35-1.99-23.63-5.9ZM431.09,23.29h3.65c11.76,0,21.89,3.15,30.11,9.36,8.04,6.03,11.95,12.96,11.95,21.19s-3.9,15.21-11.96,21.19c-8.22,6.21-18.34,9.35-30.1,9.35h-3.65V23.29Z"/>
      <path class="cls-1" d="M78.82,13.56C69.83,4.56,58.85,0,46.19,0S22.56,4.56,13.56,13.56C4.56,22.56,0,33.53,0,46.19v99.9h23.39v-15.39h0v-7.88h0v-7.39h38.32v-23.29H23.39v-7.39h19.16v-23.29h-19.16s0-15.5,0-15.55c.06-6.25,2.24-11.45,6.68-15.88,4.48-4.54,9.76-6.75,16.12-6.75s11.64,2.21,16.15,6.78c4.48,4.42,6.68,9.61,6.75,15.85,0,.05,0,15.5,0,15.55h-19.16v23.29h19.16v61.33h23.29V46.19c0-12.65-4.56-23.63-13.56-32.63Z"/>
      <path class="cls-2" d="M51.41,43.57c-2.85,0-5.17-2.31-5.17-5.17,0-2.1,1.26-3.9,3.06-4.71-.97-.3-1.99-.46-3.06-.46-5.71,0-10.33,4.63-10.33,10.33s4.63,10.33,10.33,10.33,10.33-4.63,10.33-10.33c0-1.06-.16-2.09-.46-3.06-.81,1.8-2.61,3.06-4.71,3.06Z"/>
    </g>
  </g>
</svg>